PathFileType	4	(X/Y/Z)	./resultDataOpenSim/trcMotMarkerGrf/sub09/qtm-14-01.trc
DataRate	CameraRate	NumFrames	NumMarkers	Units	OrigDataRate	OrigDataStartFrame	OrigNumFrames
250.000000	250.000000	7	24	m	250.000000	254	507
Frame#	Time	L.Toe.Tip			R.Toe.Tip			L.Ankle.Lat			R.Ankle.Lat			L.Ankle.Med			R.Ankle.Med			L.Heel			R.Heel			L.Knee.Lat			R.Knee.Lat			L.Knee.Med			R.Knee.Med			L.Thigh.Upper			R.Thigh.Upper			L.ASIS			R.ASIS			V.Sacral			L.Acromium			R.Acromium			C7			L.Elbow			R.Elbow			L.Wrist.Lat			R.Wrist.Lat
		X1	Y1	Z1	X2	Y2	Z2	X3	Y3	Z3	X4	Y4	Z4	X5	Y5	Z5	X6	Y6	Z6	X7	Y7	Z7	X8	Y8	Z8	X9	Y9	Z9	X10	Y10	Z10	X11	Y11	Z11	X12	Y12	Z12	X13	Y13	Z13	X14	Y14	Z14	X15	Y15	Z15	X16	Y16	Z16	X17	Y17	Z17	X18	Y18	Z18	X19	Y19	Z19	X20	Y20	Z20	X21	Y21	Z21	X22	Y22	Z22	X23	Y23	Z23	X24	Y24	Z24

254	1.012	0.099997665	-0.034380262	0.0061999836	0.60485378	0.18900081	0.081447639	-0.038286288	0.024968639	-0.053582565	0.4572529	0.1793523	0.10228265	-0.017016882	0.041136763	0.043609393	0.47615905	0.21977342	0.011011873	-0.11493806	0.0048024316	-0.0061662178	0.39830166	0.14441406	0.047253736	0.085815667	0.42463772	-0.11108679	0.50042078	0.62413576	0.1564936	0.084855197	0.42953931	0.012911243	0.49995204	0.61150127	0.03257104	0.1539618	0.83731112	-0.16706756	0.17859048	0.86932768	0.20580417	0.25246675	0.92019691	-0.1141803	0.24677509	0.94762157	0.12704895	0.086931454	0.98950892	0.0020786692	0.2893602	1.3764737	-0.16455939	0.2421386	1.3971473	0.15970136	0.20005112	1.4387531	-0.014902139	0.21442088	1.0053366	-0.24255591	0.05544438	1.094022	0.24163529	0.47745241	0.93088396	-0.25723755	0.12100606	0.84126528	0.32233008
255	1.016	0.10006	-0.03439373	0.0060866813	0.62259428	0.18925741	0.079909215	-0.037954719	0.025660295	-0.053847986	0.47500684	0.17614742	0.099926941	-0.016603849	0.04182373	0.043326255	0.49346527	0.21735463	0.0088710796	-0.1146082	0.0059314989	-0.006420703	0.41735648	0.14003505	0.044332178	0.087311135	0.4250708	-0.11153675	0.50571687	0.62289443	0.15602245	0.085462448	0.42965076	0.013008927	0.5052484	0.6097272	0.03221325	0.15856681	0.83702971	-0.16693644	0.18471265	0.86903277	0.20603257	0.25762548	0.91952626	-0.11434501	0.25291264	0.94704279	0.12696839	0.092548791	0.98915097	0.0025392216	0.29544796	1.375826	-0.16466478	0.2485354	1.3966117	0.15956973	0.20637086	1.4382677	-0.015003597	0.22175746	1.0041372	-0.24244135	0.061221321	1.0941952	0.24166638	0.48632079	0.93409751	-0.25676995	0.12475094	0.84115465	0.3225984
256	1.02	0.10011819	-0.034406247	0.0059614102	0.64011442	0.18945224	0.078149648	-0.037598971	0.026367858	-0.054145419	0.49264514	0.17307419	0.097528773	-0.016169698	0.042531435	0.043029324	0.51056073	0.21510445	0.0067051141	-0.11427552	0.0070939661	-0.006726151	0.43621664	0.1359609	0.041457166	0.088900273	0.42548102	-0.11197469	0.51088599	0.62137943	0.15556082	0.08585721	0.42953466	0.013016263	0.5104356	0.60779234	0.03186924	0.16323032	0.83678041	-0.16684329	0.19089366	0.86870309	0.20625426	0.26278602	0.91882668	-0.11454875	0.25908204	0.94639701	0.12683896	0.098180044	0.98877609	0.0030142601	0.30154862	1.3751539	-0.16477822	0.25492704	1.396042	0.15943751	0.21271143	1.4377446	-0.015096745	0.22914967	1.0029344	-0.24233912	0.067027596	1.0942999	0.2417077	0.49511193	0.93726355	-0.25630808	0.12857921	0.84104016	0.32287211
257	1.024	0.10017324	-0.034421463	0.0058361081	0.6574213	0.18954552	0.076120212	-0.03722843	0.027099479	-0.054461851	0.51017513	0.17014184	0.095088867	-0.015714892	0.043253406	0.0427187	0.52738826	0.21301905	0.0045229321	-0.11393207	0.0082910298	-0.0070766103	0.454846	0.13221812	0.038694438	0.090591136	0.42587599	-0.11238379	0.51598548	0.61962774	0.15510564	0.086524419	0.42940398	0.013079531	0.51555407	0.60572671	0.031492504	0.16778791	0.83656406	-0.16664011	0.1971267	0.8683184	0.20646947	0.26794483	0.9181017	-0.11479281	0.26528275	0.94568221	0.12665949	0.10382376	0.98839993	0.0035104956	0.3076631	1.3744711	-0.16490462	0.26131995	1.3954367	0.15930467	0.2190632	1.4371886	-0.015192257	0.23663355	1.001726	-0.24226684	0.072746371	1.09437	0.24173047	0.50386416	0.94037413	-0.25580653	0.13248784	0.84092205	0.32315527
258	1.028	0.10023092	-0.034440844	0.0057212598	0.6745136	0.1894992	0.073776772	-0.03686594	0.027866643	-0.0547726	0.52756115	0.16738775	0.0926273	-0.015241402	0.043987375	0.042389293	0.54389358	0.21109039	0.002327918	-0.11356357	0.0095216321	-0.0074622341	0.47318502	0.12881081	0.036076272	0.092390607	0.42625734	-0.11279519	0.5210077	0.61764795	0.15465022	0.087704193	0.42940426	0.01347076	0.52060287	0.60354891	0.031089949	0.17213539	0.83637116	-0.16621415	0.20340546	0.86786258	0.20667854	0.27307928	0.91734684	-0.11508327	0.27152035	0.94490613	0.12642982	0.10946557	0.98802364	0.0040374119	0.31379462	1.3737803	-0.16503818	0.26772539	1.394795	0.15917427	0.22542053	1.436602	-0.015297157	0.24420669	1.0005059	-0.24218802	0.07826685	1.0944434	0.24170436	0.512592	0.94342809	-0.2552452	0.13657435	0.84082606	0.32349854
259	1.032	0.10029683	-0.03446233	0.0056159493	0.69137071	0.18929462	0.071106984	-0.036553615	0.028686493	-0.05504192	0.54469727	0.1648786	0.090185036	-0.014746883	0.044736256	0.042034428	0.56005282	0.20931306	0.00011625401	-0.11315962	0.010789281	-0.0078730136	0.49111101	0.12574013	0.033619026	0.094279817	0.42662338	-0.11327251	0.52587016	0.61540929	0.15418602	0.089181275	0.42950735	0.014254769	0.52557427	0.60126222	0.030677192	0.17631879	0.83618274	-0.16559454	0.20971945	0.86732828	0.20687541	0.27817232	0.91656067	-0.1154235	0.27779569	0.94408264	0.12615126	0.11509862	0.98763963	0.0045922785	0.31993992	1.3730812	-0.16517481	0.27415168	1.3941188	0.1590481	0.23178486	1.4359823	-0.015385515	0.25185242	0.99926168	-0.24205162	0.083640508	1.0945223	0.24163577	0.52126457	0.94642588	-0.25465355	0.14095059	0.84078289	0.3239559
260	1.036	0.10037287	-0.034482328	0.0055096018	0.70796145	0.18894436	0.068141105	-0.036346617	0.02957588	-0.055225917	0.56145471	0.16266023	0.087802185	-0.014224511	0.045506216	0.041652876	0.57586083	0.20768381	-0.0021123501	-0.11271911	0.012102348	-0.0083023047	0.50851216	0.12300146	0.031336926	0.096244411	0.42697619	-0.1138318	0.53055115	0.61290757	0.15370304	0.090707796	0.42964241	0.015295308	0.53046999	0.59886428	0.030247958	0.18044721	0.83597644	-0.16490863	0.21606044	0.8667141	0.20705387	0.28324294	0.9157578	-0.11579983	0.28410351	0.94322522	0.12582726	0.12073015	0.98722726	0.0051675193	0.32609374	1.3723733	-0.165316	0.28059808	1.3934124	0.15892556	0.23815701	1.4353316	-0.015416996	0.25954516	0.99797977	-0.24183788	0.089065741	1.0945698	0.24156795	0.52983546	0.94936181	-0.25407846	0.1455929	0.84079309	0.32451701
